<svg xmlns="http://www.w3.org/2000/svg" xmlns:xlink="http://www.w3.org/1999/xlink" version="1.1" width="67.48989748954773" height="68.26533389091492" viewBox="0.05558979511260986 -0.014622509479522705 67.48989748954773 68.26533389091492">
  <!-- Exported by Scratch - http://scratch.mit.edu/ -->
  <path id="ID0.14762211730703712" fill="#272525" d="M 0.3873 31.2753 C 2.2621 13.2668 16.04 0.4468 33.5835 0.3181 C 50.246 0.1954 63.2537 11.2367 66.7784 28.2919 C 67.3589 31.3987 67.3589 36.3764 66.7784 39.4805 C 63.3479 55.5704 53.4032 65.1449 36.1928 67.4556 C 34.5767 67.4556 32.9612 67.4556 31.3438 67.4556 C 13.2855 64.8762 2.824 54.6987 0.3873 36.4971 C 0.3873 34.7563 0.3873 33.0161 0.3873 31.2753 L 0.3873 31.2753 Z " stroke-width="0.6634204387664795"/>
  <path id="ID0.3408786542713642" fill="#D7BDC2" d="M 31.3445 67.4543 C 32.9619 67.4543 34.5787 67.4543 36.1934 67.4543 C 35.4285 68.0739 32.1094 68.0739 31.3445 67.4543 L 31.3445 67.4543 Z " stroke-width="0.6634204387664795"/>
</svg>